<?xml version="1.0" encoding="utf-8"?>
<!-- Generator: Adobe Illustrator 19.2.1, SVG Export Plug-In . SVG Version: 6.00 Build 0)  -->
<svg version="1.1" id="layer" xmlns="http://www.w3.org/2000/svg" xmlns:xlink="http://www.w3.org/1999/xlink" x="0px" y="0px"
	 viewBox="0 0 652 652" style="enable-background:new 0 0 652 652;" xml:space="preserve">
<style type="text/css">
	.st0{fill:#006095;}
	.st1{fill:url(#path-2_2_);}
	.st2{fill:url(#Fill-6_1_);}
	.st3{fill:#EA862D;}
</style>
<path id="Juncker" class="st0" d="M148.7,303.6v89.1c0,21.9-19.4,33.5-43.6,35.2v-12.2c11.3-1.9,20.5-9.2,20.5-21.5v-90.6H148.7z
	 M185,324v51.3c0,7,5,12.4,16.4,12.4c6.3,0,10.8-0.8,14.6-2.5V324h22v69.4c-8.1,3.3-20.3,5.9-37.3,5.9c-25.9,0-37.6-8.6-37.6-24.9
	V324H185z M378.9,322.6c11.9,0,18.9,2.7,22.5,5.1l-4.7,9.4c-2.7-1.6-6.7-3.1-13-3.1c-14.9,0-21.2,10.3-21.2,26.4
	c0,16.3,7.4,26.7,20.9,26.7c5.9,0,10.1-1.4,13.1-3.3l5,10.3c-4,2.7-11.2,5.1-22.9,5.1c-22.1,0-38.3-14.1-38.3-38.4
	C340.4,336.1,357.3,322.6,378.9,322.6z M626.3,322.7l-4.3,12.2c-7.4-1.9-15.5-1.6-20.5,0.5v62.2h-22v-69.8
	C589.6,324.2,601.8,322.2,626.3,322.7z M290.5,322.6c29,0,38.5,10.7,38.5,22.6v52.5h-22v-52.3c0-6-3.6-12.3-17.5-12.3
	c-7.2,0-11,0.8-15.1,2.1v62.5h-22v-69.8C261.7,324.7,274.1,322.6,290.5,322.6z M434.6,290.3v67h0.4l30.8-33.4h22.3l-33.5,33.8
	l37.4,39.9h-24.7L435,360.1h-0.4v37.6h-21.8V290.3H434.6z M528.5,332.9c-12.8,0-21.6,7.9-21.1,25.6l40.1-4.7
	C547.6,338.9,540.6,332.9,528.5,332.9z M508.7,366.9c1.8,13.7,10.4,20.5,26.5,20.5c11.2,0,19.3-2.1,24.5-4.1l5.2,10.5
	c-6.8,2.9-17.3,5.2-32,5.2c-27.5,0-45-13.5-45-38.4c0-24.1,16-38,41.4-38c25.7,0,39.8,13,38.9,37.8L508.7,366.9L508.7,366.9z"/>
<linearGradient id="path-2_2_" gradientUnits="userSpaceOnUse" x1="-150.386" y1="602.8561" x2="-151.314" y2="602.6343" gradientTransform="matrix(103.202 0 0 -62.3715 15688.0518 37843.4609)">
	<stop  offset="0" style="stop-color:#006095"/>
	<stop  offset="0.2" style="stop-color:#015F97"/>
	<stop  offset="0.4" style="stop-color:#015E9A;stop-opacity:0.75"/>
	<stop  offset="0.6" style="stop-color:#015E9C;stop-opacity:0.5"/>
	<stop  offset="0.8" style="stop-color:#015D9F;stop-opacity:0.25"/>
	<stop  offset="1" style="stop-color:#005CA1;stop-opacity:0"/>
</linearGradient>
<path id="path-2_1_" class="st1" d="M169.5,240.6l-5,3.3c-1.8-3.1-4.1-6-7-8.4c-6.3-5.2-14.2-7.7-22.3-7
	c-8.1,0.7-15.5,4.6-20.8,10.8c-3.4,4.1-5.3,8.1-7.2,11.9c-4.4,9.2-8.3,21.7-30.6,29.1l-2.9-5c19.9-6.6,24-17.9,28.2-26.7
	c1.9-4,4.1-8.5,8-13.1c6.3-7.5,15.1-12.1,24.8-12.9c9.7-0.9,19.2,2.1,26.7,8.4C164.7,233.7,167.4,236.9,169.5,240.6z"/>
<linearGradient id="Fill-6_1_" gradientUnits="userSpaceOnUse" x1="-151.2474" y1="602.671" x2="-150.3194" y2="602.8806" gradientTransform="matrix(103.192 0 0 -62.369 15635.376 37923.1289)">
	<stop  offset="0" style="stop-color:#006095"/>
	<stop  offset="0.2" style="stop-color:#006095"/>
	<stop  offset="0.4" style="stop-color:#006095;stop-opacity:0.75"/>
	<stop  offset="0.6" style="stop-color:#006095;stop-opacity:0.5"/>
	<stop  offset="0.8" style="stop-color:#006095;stop-opacity:0.25"/>
	<stop  offset="1" style="stop-color:#006095;stop-opacity:0"/>
</linearGradient>
<path id="Fill-6" class="st2" d="M26.3,337.5c2.1,3.6,4.8,6.9,8.1,9.6c7.5,6.3,16.9,9.2,26.7,8.4c9.7-0.9,18.5-5.5,24.8-12.9
	c3.9-4.7,6.1-9.2,8-13.1c4.2-8.8,8.3-20.1,28.2-26.7l-2.9-5c-22.3,7.4-26.2,19.9-30.6,29.1c-1.8,3.8-3.7,7.8-7.2,11.9
	c-5.2,6.3-12.6,10.1-20.8,10.8c-8.1,0.7-16.1-1.8-22.3-7c-2.9-2.4-5.2-5.2-7-8.4"/>
<path class="st3" d="M147.4,281.9c-9.7,5.8-22.2,2.6-27.9-7.1c-5.8-9.7-2.6-22.2,7.1-27.9c9.7-5.8,22.2-2.6,27.9,7.1
	C160.2,263.6,157.1,276.1,147.4,281.9 M68.5,329c-9.7,5.8-22.2,2.6-27.9-7.1c-5.8-9.7-2.6-22.2,7.1-27.9c9.7-5.8,22.2-2.6,27.9,7.1
	C81.3,310.7,78.2,323.2,68.5,329 M598.4,412.8h-14.9v5.5h13.7c2,0,3.4,0.4,4.1,1.1c0.7,0.7,1.1,2,1.1,4v2.6c0,1.9-0.4,3.3-1.1,4
	c-0.7,0.7-2.1,1.1-4.1,1.1h-13c-2,0-3.4-0.4-4.1-1.1c-0.7-0.7-1.1-2-1.1-4v-0.6l3.7-0.8v3.2h16.1v-6H585c-2,0-3.4-0.4-4.1-1.1
	c-0.7-0.7-1.1-2-1.1-4v-2c0-2,0.4-3.3,1.1-4c0.7-0.7,2.1-1.1,4.1-1.1h11.9c1.9,0,3.3,0.3,4,1c0.8,0.7,1.2,1.9,1.2,3.7v0.5l-3.7,0.8
	V412.8 M351.2,421.3v6.5h12.4c0.9,0,1.5-0.2,1.9-0.5c0.4-0.4,0.5-1,0.5-1.9v-1.7c0-1.6-0.8-2.4-2.4-2.4H351.2z M365.8,416.5v-2
	c0-1.2-0.8-1.8-2.3-1.8h-12.4v5.5h12.4c0.8,0,1.4-0.1,1.8-0.3C365.6,417.7,365.8,417.2,365.8,416.5z M365.1,409.6
	c3.1,0,4.7,1.4,4.7,4.2v2.5c0,2.1-1.2,3.4-3.7,3.7c2.6,0.3,3.9,1.6,3.9,4.1v2.7c0,2.8-2.1,4.2-6.2,4.2h-16.7v-21.3H365.1z
	 M381.7,409.7v21.2h-4v-21.2H381.7z M395.6,409.6v9.1l13.5-9.1h5.6l-15.7,10.3l17.5,11h-6.6l-14.2-9.5v9.5h-4v-21.3H395.6z
	 M442.2,409.6v3.2h-17.4v5.5h10.5v3.2h-10.5v6.4h17.6v3.1h-21.7v-21.3H442.2z M481.3,412.7h-12.2v6.7h12.2c1.6,0,2.4-0.7,2.4-2v-2.7
	C483.7,413.4,482.9,412.7,481.3,412.7z M465.1,430.9v-21.3h18c3.1,0,4.7,1.4,4.7,4.1v4.8c0,2.7-1.6,4.1-4.7,4.1h-14v8.3H465.1
	L465.1,430.9z M498,422.9h11.3l-5.7-10.2L498,422.9z M489.6,430.9l12.3-21.3h3.7l12.6,21.3h-4.4l-2.8-5h-14.7l-2.7,5H489.6
	L489.6,430.9z M538.8,412.7h-11.4v6.9h11.4c1.1,0,1.7-0.3,2-0.8c0.2-0.3,0.3-0.8,0.3-1.4v-2.6C541,413.4,540.3,412.7,538.8,412.7z
	 M540.5,409.6c3,0,4.5,1.4,4.5,4.1v4.8c0,2.7-1.5,4.1-4.5,4.1h-2.8l9.4,8.3h-5.4l-8.5-8.3h-5.8v8.3h-4v-21.3H540.5z M574.7,409.6
	v3.2h-10.1v18.1h-4v-18.1h-10.1v-3.2H574.7z"/>
</svg>
